Coordinates
version=1
nRows=8
nColumns=40
inDegrees=yes

Units are S.I. units (second, meters, Newtons, ...)
Angles are in degrees.

endheader
time	pelvis_tilt	pelvis_list	pelvis_rotation	pelvis_tx	pelvis_ty	pelvis_tz	hip_flexion_r	hip_adduction_r	hip_rotation_r	knee_angle_r	knee_angle_r_beta	ankle_angle_r	subtalar_angle_r	mtp_angle_r	hip_flexion_l	hip_adduction_l	hip_rotation_l	knee_angle_l	knee_angle_l_beta	ankle_angle_l	subtalar_angle_l	mtp_angle_l	lumbar_extension	lumbar_bending	lumbar_rotation	arm_flex_r	arm_add_r	arm_rot_r	elbow_flex_r	pro_sup_r	wrist_flex_r	wrist_dev_r	arm_flex_l	arm_add_l	arm_rot_l	elbow_flex_l	pro_sup_l	wrist_flex_l	wrist_dev_l
      0.56000000	     -1.98208859	      8.62206217	     -0.51950413	     -0.60939471	      0.95299982	     -1.02037103	     18.52964240	    -19.87889760	    -10.46522649	    -62.77108749	     -1.09556215	     -0.31657265	    -17.79252790	     15.19011232	      7.58712779	    -10.01496912	     11.59060881	    -12.01007307	     -0.20961532	      2.36304617	      6.63319770	     -0.30077369	     -2.57845032	     -8.45325026	      1.28780240	      3.46464049	    -10.49329230	    -10.85383945	     22.51880127	     89.95437384	      0.00000000	      0.00000000	      1.61588186	     11.61739829	      8.28595845	     16.21166396	     89.95437384	      0.00000000	      0.00000000
      0.57000000	     -2.06294945	      8.18327469	     -0.25459446	     -0.60135697	      0.95374016	     -1.02229399	     19.82757855	    -19.24785088	    -10.80561649	    -62.18786989	     -1.08538308	      0.42497773	    -17.90364252	     15.14541603	      6.94025889	     -9.70813791	     11.39193912	    -11.72273556	     -0.20460033	      2.59522938	      6.39184417	     -0.36577936	     -2.71529428	     -7.94544928	      0.78752456	      3.38480988	    -10.60789078	    -10.92135563	     22.64986213	     89.95437384	      0.00000000	      0.00000000	      2.38668024	     11.54898359	      8.01299760	     16.65434113	     89.95437384	      0.00000000	      0.00000000
      0.58000000	     -2.18468645	      7.87871872	      0.07512604	     -0.59316113	      0.95428697	     -1.02424258	     21.09724695	    -18.85460955	    -11.32040389	    -61.36425600	     -1.07100831	      0.94819610	    -17.88049791	     15.01682723	      6.38198423	     -9.51081107	     11.49024063	    -11.51810106	     -0.20102879	      2.86002071	      6.27924281	     -0.42503465	     -2.76852937	     -7.60732917	      0.21864922	      3.35192909	    -10.69691945	    -10.91363390	     22.67269976	     89.95437384	      0.00000000	      0.00000000	      3.10752743	     11.53903131	      7.70791254	     17.08939777	     89.95437384	      0.00000000	      0.00000000
      0.59000000	     -2.29188080	      7.32661375	      0.48786562	     -0.58495105	      0.95479835	     -1.02594361	     22.14416284	    -18.08635238	    -11.88156783	    -60.22138157	     -1.05106139	      1.49261643	    -17.77548440	     14.93366173	      5.78259869	     -9.06641273	     11.00197086	    -11.26731961	     -0.19665183	      3.11076962	      5.95810616	     -0.51502240	     -2.81956457	     -7.01170549	     -0.38417399	      3.21373180	    -10.76625429	    -10.99573064	     22.74384914	     89.95437384	      0.00000000	      0.00000000	      3.80190492	     11.56358942	      7.15305844	     17.62361265	     89.95437384	      0.00000000	      0.00000000
      0.60000000	     -2.04132629	      6.41593653	      1.20128325	     -0.57700181	      0.95579927	     -1.02789637	     22.50202524	    -17.05736356	    -13.04019052	    -58.63192850	     -1.02332020	      1.95353850	    -17.75347573	     15.17306255	      4.84651353	     -8.22198377	      9.96566877	    -11.15669061	     -0.19472098	      3.51293914	      5.49657123	     -0.75758038	     -3.39521660	     -5.97031240	     -1.19557124	      3.06521165	    -10.82303014	    -11.79802371	     23.15429492	     89.95437384	      0.00000000	      0.00000000	      4.58115882	     11.64703884	      5.74453726	     18.31638067	     89.95437384	      0.00000000	      0.00000000
      0.61000000	     -1.79013935	      5.86103569	      1.71384517	     -0.56847300	      0.95663854	     -1.02950886	     22.90234232	    -16.43935875	    -14.03209357	    -56.92913620	     -0.99360087	      2.18160609	    -17.49989613	     15.66556071	      3.92543675	     -7.68883681	      9.75814443	    -11.07384929	     -0.19327513	      3.88284838	      5.18766288	     -1.10231694	     -3.82545199	     -5.36519478	     -1.79771627	      3.12426272	    -10.74127411	    -12.74656791	     22.83461636	     89.95437384	      0.00000000	      0.00000000	      5.22739577	     11.80517700	      4.42851846	     19.12811240	     89.95437384	      0.00000000	      0.00000000
      0.62000000	     -1.71922004	      5.41117168	      2.16940837	     -0.56004468	      0.95702558	     -1.03095530	     23.56119028	    -15.86372412	    -14.80191617	    -55.19652461	     -0.96336109	      2.43141659	    -17.24527662	     16.12857980	      3.20629147	     -7.26189052	      9.68317695	    -11.00661026	     -0.19210159	      4.17218972	      4.80093203	     -1.69217720	     -4.05451867	     -4.88721291	     -2.30513675	      3.02670263	    -10.68089376	    -13.58214915	     22.79771420	     89.95437384	      0.00000000	      0.00000000	      5.91570239	     11.98190227	      3.26518821	     19.85764975	     89.95437384	      0.00000000	      0.00000000
      0.63000000	     -2.09320689	      5.41132358	      2.37231161	     -0.55188164	      0.95626750	     -1.03260260	     24.95519448	    -15.80272982	    -15.06804326	    -53.64127279	     -0.93621683	      2.77328581	    -16.69198227	     15.80656921	      2.99875756	     -7.36220746	      9.87800279	    -10.89611365	     -0.19017306	      4.47466217	      4.60704259	     -1.76988521	     -3.76387495	     -4.87952271	     -2.70349363	      2.83936430	    -10.72957668	    -13.59850132	     22.95627053	     89.95437384	      0.00000000	      0.00000000	      6.50663722	     12.01949180	      3.16115800	     20.48891297	     89.95437384	      0.00000000	      0.00000000
